<?xml version="1.0" encoding="UTF-8" standalone="no"?>
<!-- Created with Inkscape (http://www.inkscape.org/) -->

<svg
   version="1.1"
   id="svg824"
   width="511"
   height="213"
   viewBox="0 0 511 213"
   xmlns="http://www.w3.org/2000/svg"
   xmlns:svg="http://www.w3.org/2000/svg">
  <defs
     id="defs828" />
  <g
     id="g830">
    <g
       aria-label="attention"
       id="text1445"
       style="font-size:85.3333px;line-height:1.25;letter-spacing:0px;word-spacing:0px">
      <path
         d="m 19.684219,52.125907 c -5.461331,0 -6.485331,-4.949331 -6.485331,-7.679997 0,-5.461331 2.730666,-9.557329 11.946662,-9.557329 h 3.071999 v 11.605328 c -3.071999,3.071999 -6.143998,5.631998 -8.53333,5.631998 z m 8.703996,-0.853333 0.853333,-0.853333 v 4.949331 H 41.529543 V 53.320573 L 36.068212,50.589908 V 28.061917 c 0,-9.557329 -4.095998,-15.01866 -15.701327,-15.01866 -8.362663,0 -14.1653271,5.290664 -14.3359937,10.751995 v 0.170667 c 0,2.730665 2.0479991,4.778664 4.7786647,4.778664 2.730665,0 4.778665,-2.047999 4.778665,-4.778664 0,-1.365333 -0.512,-2.559999 -1.365333,-3.413332 -0.682667,-1.365333 1.365333,-3.413332 6.143997,-3.413332 6.143998,0 7.850664,4.095998 7.850664,8.191996 v 5.461331 H 25.14555 c -12.629328,0 -20.8213247,5.461332 -20.8213247,13.653328 0,6.143998 4.4373315,12.287995 13.9946607,12.287995 3.413332,0 5.973331,-1.365333 10.069329,-5.461331 z"
         style="font-family:Toren;-inkscape-font-specification:Toren"
         id="path9923" />
      <path
         d="m 71.225515,66.733977 c 5.461331,0 8.874663,-4.095998 8.874663,-8.874663 h -2.730665 c 0,2.047999 -1.365333,3.413332 -3.413332,3.413332 -2.048,0 -3.413332,-1.365333 -3.413332,-3.413332 V 28.50466 H 87.950841 V 24.408661 H 70.542849 V 11.438 h -3.754665 c 0,6.143997 -4.095999,12.970661 -12.970662,12.970661 v 4.095999 h 8.874663 v 29.354654 c 0,4.778665 3.413332,8.874663 8.53333,8.874663 z"
         style="font-family:Toren;-inkscape-font-specification:Toren"
         id="path9925" />
      <path
         d="m 123.10814,76.733977 c 5.46134,0 8.87467,-4.095998 8.87467,-8.874663 h -2.73067 c 0,2.047999 -1.36533,3.413332 -3.41333,3.413332 -2.048,0 -3.41333,-1.365333 -3.41333,-3.413332 V 38.50466 h 17.40799 V 34.408661 H 122.42548 V 21.438 h -3.75467 c 0,6.143997 -4.096,12.970661 -12.97066,12.970661 v 4.095999 h 8.87466 v 29.354654 c 0,4.778665 3.41334,8.874663 8.53333,8.874663 z"
         style="font-family:Toren;-inkscape-font-specification:Toren"
         id="path9927" />
      <path
         d="m 192.39877,75.810986 -2.73067,-1.365333 c -1.36533,2.730666 -4.096,6.826664 -10.23999,6.826664 -5.46134,0 -10.92267,-4.095998 -10.92267,-16.383993 v -1.365333 h 25.25866 c 0,-10.239996 -4.096,-20.479991 -16.38399,-20.479991 -11.60533,0 -17.74933,10.239995 -17.74933,21.845324 0,11.605328 6.144,21.845324 17.74933,21.845324 10.92266,0 13.65332,-8.191997 15.01866,-10.922662 z M 177.38011,47.138998 c 5.46133,0 8.19199,6.826664 8.19199,12.287995 h -16.81066 c 0.93867,-8.447997 4.01067,-12.287995 8.61867,-12.287995 z"
         style="font-family:Toren;-inkscape-font-specification:Toren"
         id="path9929" />
      <path
         d="m 226.19074,93.320316 -5.46133,-2.730665 V 63.282995 c 3.07199,-3.071998 6.48533,-5.461331 8.53333,-5.461331 4.09599,0 7.16799,3.413332 7.16799,10.239996 v 22.527991 l -5.46133,2.730665 v 2.047999 h 18.09066 v -2.047999 l -5.46133,-2.730665 V 69.426993 c 0,-9.55733 -2.048,-16.383993 -11.60533,-16.383993 -3.41333,0 -6.48533,1.365332 -10.58133,5.461331 l -1.36533,1.365332 h -0.34133 v -5.461331 h -11.60533 v 2.047999 l 5.46133,2.730666 v 31.402654 l -5.46133,2.730665 v 2.047999 h 18.09066 z"
         style="font-family:Toren;-inkscape-font-specification:Toren"
         id="path9931" />
      <path
         d="m 278.75603,56.733905 c 5.46133,0 8.87467,-4.095998 8.87467,-8.874663 h -2.73067 c 0,2.047999 -1.36533,3.413332 -3.41333,3.413332 -2.048,0 -3.41333,-1.365333 -3.41333,-3.413332 V 18.504588 h 17.40799 V 14.408589 H 278.07337 V 1.4379281 h -3.75467 c 0,6.1439974 -4.096,12.9706609 -12.97066,12.9706609 v 4.095999 h 8.87466 v 29.354654 c 0,4.778665 3.41333,8.874663 8.53333,8.874663 z"
         style="font-family:Toren;-inkscape-font-specification:Toren"
         id="path9933" />
      <path
         d="m 331.83333,3.929 c -3.072,0 -5.46133,2.3893323 -5.46133,5.461331 0,3.071999 2.38933,5.461331 5.46133,5.461331 3.072,0 5.46133,-2.389332 5.46133,-5.461331 0,-3.0719987 -2.38933,-5.461331 -5.46133,-5.461331 z m 16.21332,59.391975 -12.28799,-4.095998 V 24.408991 h -15.35999 v 2.047999 l 8.19199,2.730666 V 59.224977 L 316.132,63.320975 v 2.047999 h 31.91465 z"
         style="font-family:Toren;-inkscape-font-specification:Toren"
         id="path9935" />
      <path
         d="m 404.70795,34.888581 c 0,-11.605329 -7.50933,-21.845324 -20.47999,-21.845324 -12.97066,0 -20.47999,10.239995 -20.47999,21.845324 0,11.605328 7.50933,21.845324 20.47999,21.845324 12.97066,0 20.47999,-10.239996 20.47999,-21.845324 z m -8.87466,0 c 0,12.287995 -4.77867,17.749326 -11.60533,17.749326 -6.82667,0 -11.60533,-5.461331 -11.60533,-17.749326 0,-12.287995 4.77866,-17.749326 11.60533,-17.749326 6.82666,0 11.60533,5.461331 11.60533,17.749326 z"
         style="font-family:Toren;-inkscape-font-specification:Toren"
         id="path9937" />
      <path
         d="m 433.72125,43.320316 -5.46133,-2.730665 V 13.282995 c 3.072,-3.071998 6.48533,-5.461331 8.53333,-5.461331 4.096,0 7.168,3.413332 7.168,10.239996 v 22.527991 l -5.46133,2.730665 v 2.047999 h 18.09066 v -2.047999 l -5.46133,-2.730665 V 19.426993 c 0,-9.55733 -2.048,-16.383993 -11.60533,-16.383993 -3.41333,0 -6.48533,1.365332 -10.58133,5.461331 l -1.36533,1.365332 h -0.34134 V 4.408332 H 415.6306 v 2.047999 l 5.46133,2.730666 v 31.402654 l -5.46133,2.730665 v 2.047999 h 18.09065 z"
         style="font-family:Toren;-inkscape-font-specification:Toren"
         id="path9939" />
    </g>
  </g>
</svg>
