<?xml version="1.0" encoding="UTF-8" standalone="no"?>
<!-- Created with Inkscape (http://www.inkscape.org/) -->

<svg
   version="1.1"
   id="svg824"
   width="511"
   height="213"
   viewBox="0 0 511 213"
   xmlns="http://www.w3.org/2000/svg"
   xmlns:svg="http://www.w3.org/2000/svg">
  <defs
     id="defs828" />
  <g
     id="g830">
    <g
       aria-label="considérer"
       id="text1445"
       style="font-size:85.3333px;line-height:1.25;letter-spacing:0px;word-spacing:0px">
      <path
         d="M 36.750878,45.811243 34.020213,44.44591 c -1.365333,2.730666 -3.413332,6.826664 -9.557329,6.826664 -5.461331,0 -10.922663,-4.095998 -10.922663,-16.383993 0,-12.287995 3.413332,-17.749326 8.874663,-17.749326 6.058665,0 8.78933,3.925332 6.741331,7.76533 0,0.08533 0,0.170667 -0.08533,0.256 -0.341334,0.682666 -0.512,1.365333 -0.512,2.218666 0,2.730665 2.047999,4.778664 4.778665,4.778664 2.730665,0 4.778664,-2.047999 4.778664,-4.778664 0,-7.509331 -6.826664,-14.335994 -15.701327,-14.335994 -11.605328,0 -17.7493255,10.239995 -17.7493255,21.845324 0,11.605328 6.1439975,21.845324 17.7493255,21.845324 10.922663,0 12.970662,-8.191997 14.335994,-10.922662 z"
         style="font-family:Toren;-inkscape-font-specification:Toren"
         id="path4089" />
      <path
         d="M 93.412173,44.888324 C 93.412173,33.282995 85.902842,23.043 72.932181,23.043 59.96152,23.043 52.45219,33.282995 52.45219,44.888324 c 0,11.605328 7.50933,21.845324 20.479991,21.845324 12.970661,0 20.479992,-10.239996 20.479992,-21.845324 z m -8.874663,0 c 0,12.287995 -4.778665,17.749326 -11.605329,17.749326 -6.826664,0 -11.605328,-5.461331 -11.605328,-17.749326 0,-12.287995 4.778664,-17.749326 11.605328,-17.749326 6.826664,0 11.605329,5.461331 11.605329,17.749326 z"
         style="font-family:Toren;-inkscape-font-specification:Toren"
         id="path4091" />
      <path
         d="m 122.42548,73.320316 -5.46133,-2.730665 V 43.282995 c 3.072,-3.071998 6.48533,-5.461331 8.53333,-5.461331 4.096,0 7.16799,3.413332 7.16799,10.239996 v 22.527991 l -5.46133,2.730665 v 2.047999 h 18.09066 v -2.047999 l -5.46133,-2.730665 V 49.426993 c 0,-9.55733 -2.048,-16.383993 -11.60533,-16.383993 -3.41333,0 -6.48533,1.365332 -10.58133,5.461331 l -1.36533,1.365332 h -0.34133 v -5.461331 h -11.60533 v 2.047999 l 5.46133,2.730666 v 31.402654 l -5.46133,2.730665 v 2.047999 h 18.09066 z"
         style="font-family:Toren;-inkscape-font-specification:Toren"
         id="path4093" />
      <path
         d="m 178.06277,86.051316 c 10.92266,0 12.288,-6.826664 12.288,-11.605329 0,-4.778665 -3.41333,-9.898662 -12.288,-14.335994 -5.46133,-2.730665 -8.87466,-4.778665 -8.87466,-7.50933 0,-2.730666 2.048,-4.778665 6.144,-4.778665 3.24266,0 6.48533,1.28 9.04533,5.973331 l 1.87733,4.266665 h 2.73066 V 44.408666 h -2.73066 l -2.56,2.559999 c -2.816,-2.303999 -5.54666,-3.242665 -8.36266,-3.242665 -5.46133,0 -11.60533,2.901332 -11.60533,11.605328 0,7.509331 6.31466,10.239996 12.97066,14.335994 4.94933,3.071999 7.50933,4.778665 7.50933,7.509331 0,3.413332 -2.048,4.778664 -6.144,4.778664 -5.46133,0 -10.23999,-4.778664 -12.28799,-12.970661 h -2.73067 v 16.383993 h 2.73067 l 3.072,-3.071998 c 3.41333,3.071998 6.31466,3.754665 9.21599,3.754665 z"
         style="font-family:Toren;-inkscape-font-specification:Toren"
         id="path4095" />
      <path
         d="m 228.06807,33.929 c -3.072,0 -5.46133,2.389332 -5.46133,5.461331 0,3.071999 2.38933,5.461331 5.46133,5.461331 3.072,0 5.46133,-2.389332 5.46133,-5.461331 0,-3.071999 -2.38933,-5.461331 -5.46133,-5.461331 z m 16.21333,59.391975 -12.288,-4.095998 V 54.408991 h -15.35999 v 2.047999 l 8.19199,2.730666 v 30.037321 l -12.45866,4.095998 v 2.047999 h 31.91466 z"
         style="font-family:Toren;-inkscape-font-specification:Toren"
         id="path4097" />
      <path
         d="m 278.4147,102.63798 c -5.46133,0 -9.55733,-5.461335 -9.55733,-17.74933 0,-12.287995 4.096,-17.749326 9.55733,-17.749326 4.096,0 6.144,1.023999 9.216,4.095998 v 27.306655 c -3.072,3.072003 -5.12,4.096003 -9.216,4.096003 z m 9.216,0 v 2.73066 h 13.31199 v -2.048 l -5.46133,-2.73066 V 45.294 h -13.312 v 2.047999 l 5.46134,2.730666 v 14.335993 c -2.048,-0.682666 -6.48533,-1.365332 -9.216,-1.365332 -11.60533,0 -18.43199,10.239995 -18.43199,21.845324 0,11.605328 6.82666,21.84532 18.43199,21.84532 3.41333,0 6.144,-1.024 9.216,-4.09599 z"
         style="font-family:Toren;-inkscape-font-specification:Toren"
         id="path4099" />
      <path
         d="m 326.20133,70.312993 15.61599,-7.25333 c 1.70667,-0.682667 2.816,-2.303999 2.816,-4.351998 0,-2.730666 -2.048,-4.778665 -4.77866,-4.778665 -1.36533,0 -2.56,0.512 -3.41333,1.365333 l -12.288,12.287995 z m 21.84532,35.498657 -2.73066,-1.36534 c -1.36533,2.73067 -4.096,6.82667 -10.24,6.82667 -5.46133,0 -10.92266,-4.096 -10.92266,-16.383997 V 93.52365 h 25.25866 c 0,-10.239996 -4.096,-20.479991 -16.384,-20.479991 -11.60532,0 -17.74932,10.239995 -17.74932,21.845324 0,11.605327 6.144,21.845327 17.74932,21.845327 10.92267,0 13.65333,-8.192 15.01866,-10.92266 z M 333.02799,77.139657 c 5.46134,0 8.192,6.826664 8.192,12.287995 H 324.40933 C 325.348,80.979655 328.42,77.139657 333.02799,77.139657 Z"
         style="font-family:Toren;-inkscape-font-specification:Toren"
         id="path4101" />
      <path
         d="m 386.61729,125.36832 v -2.048 l -5.46133,-2.73067 v -19.79732 l 7.50933,-7.509335 c 3.41333,-3.413332 4.43733,-4.095998 5.80266,-4.095998 2.048,0 1.36534,4.778665 6.82667,4.778665 2.73066,0 4.77866,-2.047999 4.77866,-4.778665 0,-3.413332 -2.73066,-6.143997 -6.82666,-6.143997 -3.584,0 -6.48533,0 -11.264,4.778664 l -7.85066,7.850664 V 84.408332 h -12.288 v 2.047999 l 5.46134,2.730666 v 31.402653 l -5.46134,2.73067 v 2.04799 z"
         style="font-family:Toren;-inkscape-font-specification:Toren"
         id="path4103" />
      <path
         d="m 451.81191,125.81099 -2.73066,-1.36534 c -1.36533,2.73067 -4.096,6.82667 -10.24,6.82667 -5.46133,0 -10.92266,-4.096 -10.92266,-16.384 v -1.36533 h 25.25866 c 0,-10.23999 -4.096,-20.47999 -16.384,-20.47999 -11.60533,0 -17.74932,10.24 -17.74932,21.84532 0,11.60533 6.14399,21.84533 17.74932,21.84533 10.92267,0 13.65333,-8.192 15.01866,-10.92266 z M 436.79325,97.138998 c 5.46133,0 8.192,6.826662 8.192,12.287992 h -16.81066 c 0.93867,-8.44799 4.01067,-12.287992 8.61866,-12.287992 z"
         style="font-family:Toren;-inkscape-font-specification:Toren"
         id="path4105" />
      <path
         d="m 490.38255,145.36831 v -2.04799 l -5.46133,-2.73067 v -19.79732 l 7.50933,-7.50933 c 3.41333,-3.41334 4.43733,-4.096 5.80266,-4.096 2.048,0 1.36533,4.77866 6.82667,4.77866 2.73066,0 4.77866,-2.048 4.77866,-4.77866 0,-3.41334 -2.73067,-6.144 -6.82666,-6.144 -3.584,0 -6.48533,0 -11.264,4.77866 l -7.85066,7.85067 v -11.264 h -12.288 v 2.048 l 5.46133,2.73067 v 31.40265 l -5.46133,2.73067 v 2.04799 z"
         style="font-family:Toren;-inkscape-font-specification:Toren"
         id="path4107" />
    </g>
  </g>
</svg>
