<?xml version="1.0" encoding="UTF-8" standalone="no"?>
<!-- Created with Inkscape (http://www.inkscape.org/) -->

<svg
   version="1.1"
   id="svg824"
   width="511"
   height="213"
   viewBox="0 0 511 213"
   xmlns="http://www.w3.org/2000/svg"
   xmlns:svg="http://www.w3.org/2000/svg">
  <defs
     id="defs828" />
  <g
     id="g830">
    <g
       aria-label="porter "
       id="text1445"
       style="font-size:85.3333px;line-height:1.25;letter-spacing:0px;word-spacing:0px">
      <path
         d="m 23.749149,193.81343 c -4.095998,0 -6.143998,-1.024 -9.215996,-4.09599 v -27.30666 c 3.071998,-3.072 5.119998,-4.096 9.215996,-4.096 5.461331,0 9.557329,5.46133 9.557329,17.74933 0,12.28799 -4.095998,17.74932 -9.557329,17.74932 z m -3.754665,17.06666 -5.461331,-2.73066 v -11.69066 l 0.341333,0.0853 c 2.047999,0.68266 6.143997,1.36533 8.874663,1.36533 11.605328,0 18.431992,-10.24 18.431992,-21.84532 0,-11.60533 -6.826664,-21.84533 -18.431992,-21.84533 -3.413332,0 -6.143998,1.024 -9.215996,4.096 l -1.024,1.024 v -3.75466 H 1.2211585 v 2.048 l 5.4613311,2.73066 v 47.78665 l -5.4613311,2.73066 v 2.048 H 19.994484 Z"
         style="font-family:Toren;-inkscape-font-specification:Toren"
         id="path10020" />
      <path
         d="m 94.063771,166.06433 c 0,-11.60533 -7.509331,-21.84533 -20.479992,-21.84533 -12.970661,0 -20.479991,10.24 -20.479991,21.84533 0,11.60533 7.50933,21.84532 20.479991,21.84532 12.970661,0 20.479992,-10.23999 20.479992,-21.84532 z m -8.874663,0 c 0,12.28799 -4.778665,17.74932 -11.605329,17.74932 -6.826664,0 -11.605328,-5.46133 -11.605328,-17.74932 0,-12.288 4.778664,-17.74933 11.605328,-17.74933 6.826664,0 11.605329,5.46133 11.605329,17.74933 z"
         style="font-family:Toren;-inkscape-font-specification:Toren"
         id="path10022" />
      <path
         d="m 127.85574,176.54432 v -2.048 l -5.46133,-2.73066 v -19.79733 l 7.50933,-7.50933 c 3.41333,-3.41333 4.43733,-4.096 5.80267,-4.096 2.048,0 1.36533,4.77867 6.82666,4.77867 2.73067,0 4.77866,-2.048 4.77866,-4.77867 0,-3.41333 -2.73066,-6.144 -6.82666,-6.144 -3.584,0 -6.48533,0 -11.26399,4.77867 l -7.85067,7.85066 v -11.26399 h -12.28799 v 2.048 l 5.46133,2.73066 v 31.40266 l -5.46133,2.73066 v 2.048 z"
         style="font-family:Toren;-inkscape-font-specification:Toren"
         id="path10024" />
      <path
         d="m 175.64237,197.90943 c 5.46133,0 8.87467,-4.096 8.87467,-8.87466 h -2.73067 c 0,2.048 -1.36533,3.41333 -3.41333,3.41333 -2.048,0 -3.41333,-1.36533 -3.41333,-3.41333 v -29.35465 h 17.40799 v -4.096 h -17.40799 v -12.97066 h -3.75467 c 0,6.14399 -4.096,12.97066 -12.97066,12.97066 v 4.096 h 8.87466 v 29.35465 c 0,4.77866 3.41334,8.87466 8.53333,8.87466 z"
         style="font-family:Toren;-inkscape-font-specification:Toren"
         id="path10026" />
      <path
         d="m 244.933,186.98677 -2.73067,-1.36533 c -1.36533,2.73066 -4.096,6.82666 -10.24,6.82666 -5.46133,0 -10.92266,-4.096 -10.92266,-16.38399 v -1.36533 h 25.25866 c 0,-10.24 -4.096,-20.48 -16.38399,-20.48 -11.60533,0 -17.74933,10.24 -17.74933,21.84533 0,11.60533 6.144,21.84532 17.74933,21.84532 10.92266,0 13.65332,-8.19199 15.01866,-10.92266 z m -15.01866,-28.67199 c 5.46133,0 8.19199,6.82667 8.19199,12.288 h -16.81066 c 0.93867,-8.448 4.01067,-12.288 8.61867,-12.288 z"
         style="font-family:Toren;-inkscape-font-specification:Toren"
         id="path10028" />
      <path
         d="m 283.50363,196.5441 v -2.048 l -5.46133,-2.73066 v -19.79733 l 7.50933,-7.50933 c 3.41333,-3.41333 4.43733,-4.096 5.80266,-4.096 2.048,0 1.36534,4.77867 6.82667,4.77867 2.73066,0 4.77866,-2.048 4.77866,-4.77867 0,-3.41333 -2.73066,-6.144 -6.82666,-6.144 -3.584,0 -6.48533,0 -11.264,4.77867 l -7.85066,7.85066 v -11.26399 h -12.28799 v 2.048 l 5.46133,2.73066 v 31.40266 l -5.46133,2.73066 v 2.048 z"
         style="font-family:Toren;-inkscape-font-specification:Toren"
         id="path10030" />
    </g>
  </g>
</svg>
